PathFileType	4	(X/Y/Z)	/Users/itak/Documents/Research/Walk-IL/dataset/trc/00541_00009.trc
DataRate	CameraRate	NumFrames	NumMarkers	Units	OrigDataRate	OrigDataStartFrame	OrigNumFrames
100.000000	100.000000	4	53	mm	100.000000	658	878
Frame#	Time	RPSI			LPSI			L3			STRN			T10			C7			CLAV			RBAK			LBAK			LSHO			LUPA			LAEL			LAOL			LWTS			LWPS			LFRA			LIFD			LHPS			LHTS			RSHO			RUPA			RAEL			RAOL			RWTS			RWPS			RFRA			RIFD			RHTS			RHPS			RBHD			LFHD			RFHD			LBHD			LHIP			RHIP			RASI			LASI			LKNE			LTHI			LANK			LTIP			LTOE			LMT1			LMT5			LHEE			RKNE			RTHI			RANK			RTIP			RTOE			RMT1			RMT5			RHEE			
		X1	Y1	Z1	X2	Y2	Z2	X3	Y3	Z3	X4	Y4	Z4	X5	Y5	Z5	X6	Y6	Z6	X7	Y7	Z7	X8	Y8	Z8	X9	Y9	Z9	X10	Y10	Z10	X11	Y11	Z11	X12	Y12	Z12	X13	Y13	Z13	X14	Y14	Z14	X15	Y15	Z15	X16	Y16	Z16	X17	Y17	Z17	X18	Y18	Z18	X19	Y19	Z19	X20	Y20	Z20	X21	Y21	Z21	X22	Y22	Z22	X23	Y23	Z23	X24	Y24	Z24	X25	Y25	Z25	X26	Y26	Z26	X27	Y27	Z27	X28	Y28	Z28	X29	Y29	Z29	X30	Y30	Z30	X31	Y31	Z31	X32	Y32	Z32	X33	Y33	Z33	X34	Y34	Z34	X35	Y35	Z35	X36	Y36	Z36	X37	Y37	Z37	X38	Y38	Z38	X39	Y39	Z39	X40	Y40	Z40	X41	Y41	Z41	X42	Y42	Z42	X43	Y43	Z43	X44	Y44	Z44	X45	Y45	Z45	X46	Y46	Z46	X47	Y47	Z47	X48	Y48	Z48	X49	Y49	Z49	X50	Y50	Z50	X51	Y51	Z51	X52	Y52	Z52	X53	Y53	Z53	

659	6.58	509.7116088867188	1020.399047851562	434.5281066894531	509.2799682617188	1023.245544433594	300.4629211425781	518.1665649414062	1118.504760742188	368.863525390625	762.295166015625	1290.427856445312	354.3856506347656	514.9213256835938	1244.1142578125	371.6669311523438	582.5126342773438	1512.89697265625	382.0379028320312	748.9038696289062	1402.072998046875	355.8668212890625	512.7911987304688	1392.746704101562	475.6495056152344	538.5595703125	1463.388305664062	292.4595642089844	632.058837890625	1479.852294921875	202.7255096435547	607.71044921875	1354.14306640625	124.6899185180664	609.4625854492188	1131.019653320312	100.4369354248047	528.40185546875	1129.064208984375	158.4744720458984	689.597412109375	881.1251831054688	131.4829559326172	633.563232421875	862.9636840820312	66.67627716064453	625.3574829101562	1043.529174804688	89.25473785400391	673.1090087890625	711.0833740234375	125.9225616455078	638.6658935546875	802.422607421875	73.18174743652344	696.4509887695312	803.1591796875	109.1041793823242	655.5042724609375	1469.08154296875	531.1759643554688	641.3665771484375	1405.483520507812	600.8768310546875	627.3192138671875	1114.222045898438	642.1956787109375	568.8742065429688	1100.157104492188	620.4629516601562	745.8404541015625	888.9725952148438	589.5663452148438	708.576416015625	870.5138549804688	659.8517456054688	635.4035034179688	1058.677124023438	648.43505859375	750.6876220703125	715.7928466796875	590.8082275390625	772.3134765625	796.4637451171875	601.1771240234375	722.2156372070312	795.90966796875	656.2394409179688	671.1754760742188	1686.692138671875	440.2276611328125	811.0808715820312	1706.097900390625	287.5907897949219	810.2654418945312	1704.68310546875	432.0870056152344	679.0928955078125	1686.496215820312	275.1675720214844	640.189697265625	947.9581298828125	166.5513458251953	628.9354858398438	938.9847412109375	556.6417236328125	717.8656005859375	967.134033203125	498.531982421875	715.1499633789062	969.98291015625	222.8893127441406	808.7396240234375	531.8170166015625	202.8105163574219	747.880615234375	688.5084228515625	171.4945373535156	825.0402221679688	48.80773162841797	184.8321533203125	796.4403076171875	277.3755187988281	184.0533447265625	1024.506103515625	92.88103485107422	244.7347106933594	955.3901977539062	78.92980194091797	278.6170654296875	943.29931640625	66.89787292480469	174.6522674560547	755.0718383789062	44.04070663452148	236.6244964599609	630.26611328125	494.0241394042969	488.0045776367188	664.074462890625	781.4417114257812	543.3956298828125	517.70849609375	40.54061889648438	446.6354370117188	620.4098510742188	351.6265869140625	463.5028076171875	736.0726318359375	42.74761199951172	395.720947265625	670.6287841796875	41.85214614868164	357.6468505859375	650.7177734375	43.42955780029297	460.850341796875	460.5580444335938	32.48919677734375	390.2828063964844	
660	6.59	512.54833984375	1020.088684082031	433.4091796875	512.4442138671875	1022.780883789062	299.3083801269531	521.21142578125	1118.1025390625	367.6414184570312	765.193603515625	1290.050903320312	353.5680541992188	517.9073486328125	1243.658813476562	370.4442138671875	585.35693359375	1512.50537109375	380.9977111816406	751.7820434570312	1401.704345703125	355.01171875	515.5167236328125	1392.3154296875	474.5186157226562	541.4962768554688	1462.97314453125	291.388916015625	635.042236328125	1479.444091796875	201.7317047119141	610.6427001953125	1353.6640625	123.7942657470703	612.0916748046875	1130.535766601562	99.79042053222656	531.1183471679688	1128.709838867188	157.991943359375	692.0794677734375	880.611328125	130.8678741455078	635.8314819335938	862.4140014648438	66.22113037109375	627.8302001953125	1043.02490234375	88.61212921142578	675.447998046875	710.6052856445312	125.4883117675781	640.86962890625	801.8759765625	72.79986572265625	698.7975463867188	802.6190795898438	108.5261459350586	658.1373901367188	1468.699951171875	530.236328125	643.9231567382812	1405.084106445312	599.8968505859375	629.8273315429688	1113.807495117188	641.1580810546875	571.4324340820312	1099.789184570312	619.3350219726562	748.2745361328125	888.4298706054688	588.7722778320312	710.7163696289062	869.997314453125	658.9417114257812	637.8626098632812	1058.244873046875	647.4054565429688	752.9498291015625	715.2566528320312	590.0690307617188	774.6400756835938	795.901611328125	600.4413452148438	724.44482421875	795.4070434570312	655.4364013671875	674.0358276367188	1686.392456054688	439.2515869140625	813.9461059570312	1705.684326171875	286.6000671386719	813.1557006835938	1704.328979492188	431.0938415527344	681.938232421875	1686.09033203125	274.2042846679688	643.498291015625	947.3048095703125	165.7937164306641	631.6096801757812	938.8125	555.82861328125	720.5302124023438	966.8479614257812	497.8445129394531	718.4138793945312	969.3526000976562	222.1915283203125	811.517822265625	531.2364501953125	202.1069641113281	750.617431640625	687.7384643554688	170.6181182861328	834.06201171875	48.71772003173828	184.0117645263672	802.3344116210938	277.0116577148438	183.2432861328125	1032.695434570312	95.25373077392578	244.7673645019531	963.5580444335938	80.51699829101562	278.3961181640625	952.1077270507812	68.16580963134766	174.384521484375	763.9240112304688	43.17837905883789	235.4784088134766	631.3204345703125	493.8812866210938	487.63671875	666.284423828125	781.2420654296875	542.7593383789062	517.6469116210938	40.57539749145508	446.6332397460938	621.0296020507812	351.5226745605469	463.2906494140625	736.055419921875	42.69775390625	395.7278137207031	670.7060546875	41.79050064086914	357.7114868164062	650.7640991210938	43.41310501098633	460.8960571289062	460.5940551757812	32.50024032592773	390.2406921386719	
661	6.600000000000001	515.5025024414062	1019.742004394531	432.2522888183594	515.71923828125	1022.275512695312	298.1169128417969	524.3468017578125	1117.6533203125	366.3746643066406	768.1661376953125	1289.658935546875	352.7273864746094	520.9806518554688	1243.16748046875	369.1620483398438	588.2446899414062	1512.077880859375	379.892333984375	754.7247314453125	1401.320190429688	354.1400451660156	518.2784423828125	1391.853149414062	473.3112182617188	544.50390625	1462.509765625	290.2463989257812	638.1234741210938	1478.99560546875	200.6841735839844	613.7145385742188	1353.14599609375	122.8416442871094	614.8955078125	1130.009643554688	99.09000396728516	533.9932250976562	1128.30517578125	157.4417572021484	694.7351684570312	880.05517578125	130.2457580566406	638.2963256835938	861.8181762695312	65.74748229980469	630.4864501953125	1042.47509765625	87.94948577880859	677.96728515625	710.0811767578125	125.0548934936523	643.2703247070312	801.2813110351562	72.40594482421875	701.3267211914062	802.0344848632812	107.9562149047852	660.7797241210938	1468.300537109375	529.2501831054688	646.4818115234375	1404.666137695312	598.8724975585938	632.3517456054688	1113.371337890625	640.0773315429688	574.0076293945312	1099.394287109375	618.1398315429688	750.7506103515625	887.8731689453125	587.9972534179688	712.8906860351562	869.4735107421875	658.0328369140625	640.3317260742188	1057.786987304688	646.3372192382812	755.2728881835938	714.7102661132812	589.3543090820312	777.02099609375	795.329345703125	599.7335815429688	726.7080078125	794.89990234375	654.6419067382812	676.88818359375	1686.060302734375	438.2354736328125	816.8373413085938	1705.275756835938	285.6087341308594	816.0354614257812	1703.972778320312	430.0944213867188	684.8150634765625	1685.659912109375	273.2047119140625	646.9131469726562	946.5938110351562	165.0317840576172	634.3917846679688	938.6385498046875	554.9880981445312	723.2890625	966.544677734375	497.1316528320312	721.7967529296875	968.6822509765625	221.4701690673828	814.2332153320312	530.5348510742188	201.3807830810547	753.3539428710938	686.8656005859375	169.7094268798828	842.4531860351562	48.55751037597656	183.2383575439453	807.877197265625	276.5469360351562	182.4592590332031	1040.260620117188	97.59487152099609	244.708251953125	971.1406860351562	82.04164886474609	278.1209411621094	960.2662963867188	69.41396331787109	174.0678253173828	772.1580810546875	42.21391296386719	234.3903961181641	632.3807983398438	493.7391662597656	487.2644958496094	668.4921875	781.04443359375	542.1536865234375	517.5798950195312	40.60808181762695	446.6312866210938	621.6439819335938	351.4120483398438	463.1048583984375	736.065673828125	42.65096664428711	395.7546691894531	670.80224609375	41.77211380004883	357.8148803710938	650.8237915039062	43.39110946655273	460.95654296875	460.6033020019531	32.5213737487793	390.2050476074219	
662	6.61	518.5830078125	1019.353454589844	431.0457458496094	519.1083374023438	1021.731140136719	296.8875122070312	527.5740966796875	1117.15185546875	365.0635986328125	771.2142944335938	1289.250244140625	351.8607788085938	524.137939453125	1242.64208984375	367.8148498535156	591.1740112304688	1511.612182617188	378.7227478027344	757.7310180664062	1400.91845703125	353.2502746582031	521.078369140625	1391.361206054688	472.0295715332031	547.5819702148438	1461.995727539062	289.0332641601562	641.3008422851562	1478.506103515625	199.5830993652344	616.9251708984375	1352.59033203125	121.8345565795898	617.8741455078125	1129.443237304688	98.32929229736328	537.0263671875	1127.848876953125	156.8171234130859	697.563232421875	879.4571533203125	129.6157836914062	640.9656372070312	861.179443359375	65.24785614013672	633.3340454101562	1041.881225585938	87.26301574707031	680.6629638671875	709.5060424804688	124.6281814575195	645.87841796875	800.640869140625	71.99211883544922	704.0430908203125	801.4054565429688	107.3926391601562	663.4381103515625	1467.88037109375	528.2168579101562	649.0499267578125	1404.227172851562	597.802978515625	634.89794921875	1112.911987304688	638.9556274414062	576.6033935546875	1098.972045898438	616.8826904296875	753.2698364257812	887.2990112304688	587.2342529296875	715.1111450195312	868.9421997070312	657.123291015625	642.8177490234375	1057.305786132812	645.2337646484375	757.656005859375	714.1497192382812	588.66064453125	779.4579467773438	794.7462158203125	599.0478515625	729.0064086914062	794.3870239257812	653.8534545898438	679.7341918945312	1685.692016601562	437.1798095703125	819.7561645507812	1704.870727539062	284.617431640625	818.9043579101562	1703.612182617188	429.0903930664062	687.7269287109375	1685.204345703125	272.1692810058594	650.4514770507812	945.8318481445312	164.2468566894531	637.247314453125	938.4620361328125	554.1309204101562	726.14599609375	966.222412109375	496.3962707519531	725.3058471679688	967.9754638671875	220.7241973876953	816.8890380859375	529.7114868164062	200.6477508544922	756.1038818359375	685.89306640625	168.7745513916016	850.1693725585938	48.29595184326172	182.5203552246094	813.0477294921875	275.9653625488281	181.7038726806641	1047.177856445312	99.81328582763672	244.5684661865234	978.1076049804688	83.44223022460938	277.798095703125	967.7401733398438	70.5692138671875	173.7195281982422	779.7303466796875	41.14573669433594	233.3687591552734	633.4637451171875	493.5948791503906	486.8909301757812	670.700927734375	780.8460083007812	541.5792236328125	517.5145263671875	40.63595962524414	446.6282653808594	622.265625	351.2914123535156	462.9384155273438	736.1043090820312	42.61844253540039	395.810302734375	670.8952026367188	41.78155899047852	357.9327392578125	650.8860473632812	43.35951995849609	461.0260009765625	460.5887145996094	32.55048751831055	390.1769104003906	
